<?xml version="1.0" encoding="UTF-8" standalone="no"?>
<!-- Created with Inkscape (http://www.inkscape.org/) -->

<svg
   width="210mm"
   height="297mm"
   viewBox="0 0 210 297"
   version="1.1"
   id="svg1"
   xml:space="preserve"
   xmlns="http://www.w3.org/2000/svg"
   xmlns:svg="http://www.w3.org/2000/svg"><defs
     id="defs1" /><g
     id="layer1"><g
       id="g1"
       transform="matrix(8.6389198,0,0,7.0977043,-783.28826,-900.95246)"><path
         style="fill:#010101"
         d="m 94.495135,168.87292 c 0,-0.21828 -0.0893,-0.39711 -0.198437,-0.39739 -0.251461,-6.5e-4 -1.627277,-2.0723 -2.63537,-3.96824 -4.234112,-7.96317 -4.618162,-20.23765 -0.910625,-29.10416 0.93253,-2.23013 3.282766,-5.98512 4.394489,-7.02111 1.360596,-1.26791 3.001952,-2.50389 3.32511,-2.50389 0.191835,0 0.578824,-0.20818 0.859975,-0.46262 0.758603,-0.68653 7.032923,-0.68685 7.791633,-4e-4 0.28147,0.25466 0.71449,0.46302 0.96226,0.46302 0.24777,0 0.51902,0.17859 0.60278,0.39687 0.0838,0.21828 0.29291,0.39688 0.46477,0.39688 0.56867,0 4.12883,3.65201 4.12883,4.23534 0,0.14442 0.11906,0.26257 0.26458,0.26257 0.14553,0 0.26459,0.1786 0.26459,0.39688 0,0.21828 0.0968,0.39687 0.2152,0.39687 0.11836,0 0.37871,0.41672 0.57855,0.92605 0.19984,0.50932 0.46019,0.92604 0.57855,0.92604 0.11836,0 0.2152,0.18021 0.2152,0.40046 0,0.22026 0.11906,0.63698 0.26458,0.92604 0.14552,0.28907 0.38365,0.76209 0.52917,1.05116 0.14552,0.28906 0.26458,0.75829 0.26458,1.04272 0,0.28442 0.10591,0.58259 0.23535,0.66259 0.12944,0.08 0.30308,0.53351 0.38586,1.0078 0.0828,0.4743 0.28091,1.5172 0.44029,2.31756 1.03553,5.19999 0.79692,13.26039 -0.52868,17.85938 -0.16778,0.58208 -0.37052,1.32798 -0.45053,1.65755 -0.08,0.32957 -0.25032,0.66402 -0.37846,0.74322 -0.12815,0.0792 -0.233,0.31686 -0.233,0.52814 0,0.38721 -1.03472,2.7785 -1.3086,3.02421 -0.0811,0.0728 -0.32215,0.47082 -0.53567,0.88458 -0.22144,0.4291 -0.43584,0.60946 -0.49905,0.41982 -0.0951,-0.28524 -0.70494,-1.04696 -1.76234,-2.20117 -1.13152,-1.23511 -2.95837,-4.15369 -4.24144,-6.77615 -1.50075,-3.06734 -1.61338,-3.35763 -3.03579,-7.82399 -0.14233,-0.44689 -0.25877,-1.06495 -0.25877,-1.37345 0,-0.3085 -0.11906,-0.63449 -0.26459,-0.72443 -0.14552,-0.0899 -0.26458,-0.50666 -0.26458,-0.92604 0,-0.41939 -0.11906,-0.83611 -0.26458,-0.92604 -0.14552,-0.0899 -0.26459,-0.62572 -0.26459,-1.19063 0,-0.56491 -0.10648,-1.09292 -0.23663,-1.17335 -0.13015,-0.0804 -0.30874,-0.62325 -0.39687,-1.20624 -0.0881,-0.583 -0.23235,-1.53699 -0.32049,-2.11998 -0.0881,-0.583 -0.26672,-1.12581 -0.39687,-1.20624 -0.13015,-0.0804 -0.23664,-0.51773 -0.23664,-0.97175 0,-0.45402 -0.11099,-1.19114 -0.24665,-1.63803 -0.13566,-0.44689 -0.39031,-1.34832 -0.56588,-2.00316 -0.52163,-1.9455 -0.82323,-2.52367 -1.477518,-2.83245 -0.3412,-0.16102 -0.620364,-0.1849 -0.620364,-0.0531 0,0.13183 -0.164707,0.23969 -0.366016,0.23969 -0.784449,0 -1.241571,2.57654 -1.384777,7.80521 -0.09984,3.64516 -0.194228,4.38956 -0.679381,5.35781 -0.30989,0.61846 -0.66378,1.12448 -0.786423,1.12448 -0.122642,0 -0.222986,0.46822 -0.222986,1.0405 0,0.79881 0.119701,1.0785 0.515319,1.20406 0.467573,0.1484 0.515857,0.42387 0.521132,2.97313 0.0032,1.5672 0.126363,2.93012 0.278431,3.08219 0.14994,0.14994 0.272618,0.88588 0.272618,1.63543 0,1.35743 0.385002,2.92454 0.841279,3.42433 0.13194,0.14453 1.038425,0.34626 2.01441,0.44829 0.975986,0.10203 2.297406,0.28143 2.936486,0.39868 1.12262,0.20596 1.17375,0.25798 1.50968,1.5361 0.57702,2.19537 0.50086,2.497 -0.98193,3.88912 -0.74414,0.69864 -1.4695,1.27025 -1.61191,1.27025 -0.14241,0 -0.56165,0.23813 -0.93165,0.52917 -0.37,0.29104 -0.880218,0.52916 -1.133816,0.52916 -0.253599,0 -0.609308,0.1786 -0.790466,0.39688 -0.181157,0.21828 -0.716938,0.39687 -1.190625,0.39687 -0.473686,0 -1.009467,0.1786 -1.190625,0.39688 -0.181157,0.21828 -0.671985,0.39687 -1.09073,0.39687 -0.500369,0 -0.761353,-0.13604 -0.761353,-0.39687 z m 16.327505,-21.56354 c 0.0761,-0.29104 0.27332,-0.5429 0.43825,-0.55969 0.70335,-0.0716 0.84908,-0.11514 1.22591,-0.36635 0.67903,-0.45269 1.05833,-1.39967 1.05833,-2.64225 0,-0.65682 0.0944,-1.19421 0.20971,-1.19421 0.11534,0 0.34891,-0.52046 0.51904,-1.15657 0.23682,-0.88541 0.23608,-1.35063 -0.003,-1.98437 -0.17185,-0.4553 -0.40542,-0.82781 -0.51904,-0.82781 -0.11362,0 -0.20658,-0.57771 -0.20658,-1.28379 0,-1.61453 -0.8691,-3.04241 -1.92677,-3.16556 -0.39548,-0.046 -0.72302,-0.16511 -0.72786,-0.26458 -0.005,-0.0995 -0.23809,-0.45592 -0.51833,-0.79211 l -0.50953,-0.61124 -0.80459,0.59485 c -0.44252,0.32717 -0.80458,0.8116 -0.80458,1.07651 0,0.41733 -0.0722,0.43718 -0.54089,0.14868 -0.4717,-0.29038 -0.60631,-0.24837 -1.05245,0.32849 -0.48939,0.63278 -0.54735,0.87656 -0.62255,2.61805 -0.0182,0.42129 -0.24143,0.99621 -0.49609,1.27761 -0.62338,0.68882 -0.63904,3.14421 -0.0244,3.82339 0.28139,0.31094 0.45421,1.00696 0.48212,1.94171 0.0342,1.1463 0.17369,1.57834 0.65398,2.02579 0.50133,0.46706 0.69897,0.5135 1.10538,0.25969 0.41496,-0.25915 0.49489,-0.23178 0.49489,0.16943 0,0.72409 0.53608,1.11349 1.53289,1.11349 0.67538,0 0.93219,-0.13113 1.03628,-0.52916 z m -1.59903,-5.99723 c -0.2656,-0.26559 -0.20423,-1.48968 0.0973,-1.94027 0.22986,-0.34352 0.31824,-0.32783 0.65741,0.11671 0.51415,0.6739 0.50019,1.63718 -0.0267,1.83935 -0.51821,0.19886 -0.51326,0.19897 -0.72801,-0.0158 z"
         id="path1" /></g></g></svg>
